<?xml version="1.0" encoding="utf-8"?>
<!-- Generator: Adobe Illustrator 21.1.0, SVG Export Plug-In . SVG Version: 6.00 Build 0)  -->
<svg version="1.1" id="Layer_1" xmlns="http://www.w3.org/2000/svg" xmlns:xlink="http://www.w3.org/1999/xlink" x="0px" y="0px"
	 viewBox="0 0 408.9 408.9" enable-background="new 0 0 408.9 408.9" xml:space="preserve">
<path fill="#010101" d="M294,242.9c15.2-24.3,24-53.2,24-84C318,71.1,246.9,0,159,0C71.1,0,0,71.1,0,159c0,87.9,71.1,159,159,159
	c30.9,0,59.6-8.8,84-24l104.4,104.3c14,14.1,36.9,14.1,51,0c14.1-14.1,14.1-37,0-51.1L294,242.9z M159,272.6
	c-62.7,0-113.6-50.9-113.6-113.6C45.4,96.3,96.3,45.4,159,45.4S272.6,96.3,272.6,159C272.6,221.7,221.7,272.6,159,272.6z"/>
</svg>
