<?xml version="1.0" encoding="utf-8"?>
<!-- Generator: Adobe Illustrator 21.1.0, SVG Export Plug-In . SVG Version: 6.00 Build 0)  -->
<svg version="1.1" id="Слой_1" xmlns="http://www.w3.org/2000/svg" xmlns:xlink="http://www.w3.org/1999/xlink" x="0px" y="0px"
	 viewBox="0 0 514.5 70.1" style="enable-background:new 0 0 514.5 70.1;" xml:space="preserve">
<style type="text/css">
	.st0{fill:#FFFFFF;}
	.st1{fill:none;}
	.st2{enable-background:new    ;}
</style>
<g>
	<path class="st0" d="M9,69.1H0C0,56,5.5,36.5,20.9,21.3C34,8.4,51.5,1.6,71.6,1.9l-0.1,9c-17.6-0.2-32.9,5.6-44.3,16.8
		C13.8,41,9,58.3,9,69.1z"/>
</g>
<g>
	<path class="st0" d="M29.5,69.1h-9c0-12.7,5.8-25.9,15.6-35.3c9.7-9.4,22.3-14.3,35.6-13.9l-0.3,9c-10.7-0.3-21,3.7-29,11.4
		C34.3,48,29.5,58.8,29.5,69.1z"/>
</g>
<g>
	<ellipse class="st1" cx="58.4" cy="56.4" rx="10.1" ry="9.7"/>
	<path class="st0" d="M58.4,70.1c-7.8,0-14.1-6.1-14.1-13.7s6.3-13.7,14.1-13.7s14.1,6.1,14.1,13.7S66.2,70.1,58.4,70.1z M58.4,50.7
		c-3.4,0-6.1,2.6-6.1,5.7s2.7,5.7,6.1,5.7s6.1-2.6,6.1-5.7S61.8,50.7,58.4,50.7z"/>
</g>
<g class="st2">
	<path class="st0" d="M129.5,52.8c0,10.8-7.6,15.6-17.5,15.6s-19.5-1.3-19.5-1.3V56.5c0,0,9.1,1.2,17,1.2c3.2,0,5.3-0.8,5.3-3.9
		c0-7.8-25.1-8.1-25.1-26.1c0-10.9,7.4-15.7,17.4-15.7s19.6,1.3,19.6,1.3V24c0,0-10.9-1.2-19.1-1.2c-2.3,0-3.4,1.2-3.4,3.7
		C104.2,32.8,129.5,34.9,129.5,52.8z"/>
	<path class="st0" d="M194.4,68.1V28.4c0-2.5-0.8-4.2-2.4-4.2c-2.3,0-6.4,0.8-10.3,1.8l0.1,42.1h-14.4V27.8c0-2.3-0.9-3.6-2.5-3.6
		c-2.5,0-7.1,1-10.9,2.3v41.6h-14.4V13.2h12.1l1.1,4.6c2.9-1.9,7.3-5.7,14.6-5.7c4.8,0,7.7,2.3,10.8,5.3c6.3-3.9,11-5.3,16.3-5.3
		c9.7,0,14.6,5,14.6,14.3v41.7H194.4z"/>
	<path class="st0" d="M260.4,68.1h-12.2c-0.2-1.1-0.5-3.4-0.9-4.5c-3.3,2.3-8.5,5.5-13.1,5.5c-11.9,0-15.8-8.1-15.8-18.5
		c0-13,8.6-15.7,19.9-15l7.8,0.5v-8.5c0-4.6-1.9-4.8-5-4.8c-5.7,0-12.6,0.5-17.8,1.4c0-0.4-2-9.7-2-10.2c8.1-1.7,15.1-2,21.2-2
		c12.1,0,17.8,2.6,17.8,15.8v40.3H260.4z M246.1,45.2c-10,0-13.5,0.4-13.5,5.9c0,4,1.1,6.1,3.2,6.1c2.1,0,6.5-1.8,10.3-3.3V45.2z"/>
	<path class="st0" d="M301.8,11.9V23c-5.3,0.4-10.9,3.6-15.1,5.4v39.7h-14.4v-55h13.1l0.4,4.8C289.1,16.2,293,13,301.8,11.9z"/>
	<path class="st0" d="M316.2,48.3V23.2h-10.8V13.1h10.8V0h14.1v13.1h11v10.1h-11v27c0,6.9,0.3,9.1,7.4,8.7c0.3,0,0.8-0.1,1.2-0.1
		c1-0.1,2.1-0.1,3.5-0.3c0,2.4,0.1,7.1,0.1,9.6c-3.9,0.9-6.4,1.1-8.1,1.1C318.1,69.1,316.2,61.4,316.2,48.3z"/>
	<path class="st0" d="M386.7,52.8c0,10.8-7.6,15.6-17.5,15.6s-19.5-1.3-19.5-1.3V56.5c0,0,9.1,1.2,17,1.2c3.2,0,5.3-0.8,5.3-3.9
		c0-7.8-25.1-8.1-25.1-26.1c0-10.9,7.4-15.7,17.4-15.7s19.6,1.3,19.6,1.3V24c0,0-10.9-1.2-19.1-1.2c-2.3,0-3.4,1.2-3.4,3.7
		C361.4,32.8,386.7,34.9,386.7,52.8z"/>
	<path class="st0" d="M403.3,52.5c7,0,7.9,0.9,7.9,7.8c0,6.5-0.6,8.1-7.9,8.1s-7.9-1.5-7.9-8.1C395.4,53.6,396.1,52.5,403.3,52.5z"
		/>
	<path class="st0" d="M435.2,13.2v40.3c0,2.3,1,3.6,2.8,3.6c2.3,0,6.9-1.2,10.8-2.5V13.2h14.4v54.9h-12.1l-1.2-3.8
		c-4.6,2-9.4,4.9-14.5,4.9c-7.6,0-14.4-4-14.4-13.9l-0.1-42.1H435.2z"/>
	<path class="st0" d="M514.5,68.1h-12.2c-0.2-1.1-0.5-3.4-0.9-4.5c-3.3,2.3-8.5,5.5-13.1,5.5c-11.9,0-15.8-8.1-15.8-18.5
		c0-13,8.6-15.7,19.9-15l7.8,0.5v-8.5c0-4.6-1.9-4.8-5-4.8c-5.7,0-12.7,0.5-17.8,1.4c0-0.4-2-9.7-2-10.2c8.1-1.7,15.1-2,21.2-2
		c12.1,0,17.8,2.6,17.8,15.8L514.5,68.1L514.5,68.1z M500.2,45.2c-10,0-13.5,0.4-13.5,5.9c0,4,1.1,6.1,3.2,6.1s6.5-1.8,10.3-3.3
		V45.2z"/>
</g>
</svg>
