<svg id="Слой_1" data-name="Слой 1" xmlns="http://www.w3.org/2000/svg" xmlns:xlink="http://www.w3.org/1999/xlink" width="173.08" height="31.18" viewBox="0 0 173.08 31.18"><defs><clipPath id="clip-path"><path d="M170.08,31.18h-71a3,3,0,0,1-3-3v-24a3,3,0,0,1,3-3h71a3,3,0,0,1,3,3v24A3,3,0,0,1,170.08,31.18Z" fill="none"/></clipPath></defs><title>logo</title><g clip-path="url(#clip-path)"><path d="M173.08,31.18v0Z" fill="#ff0072"/><rect x="172.4" y="1.18" width="0.68" height="30" fill="#ff0072"/><rect x="171.73" y="1.18" width="0.68" height="30" fill="#ff0071"/><rect x="171.05" y="1.18" width="0.68" height="30" fill="#fe0070"/><rect x="170.38" y="1.18" width="0.68" height="30" fill="#fe006f"/><rect x="169.7" y="1.18" width="0.68" height="30" fill="#fe006e"/><rect x="169.02" y="1.18" width="0.68" height="30" fill="#fd006d"/><rect x="168.35" y="1.18" width="0.68" height="30" fill="#fd006c"/><rect x="167.67" y="1.18" width="0.68" height="30" fill="#fd006b"/><rect x="167" y="1.18" width="0.68" height="30" fill="#fc006a"/><rect x="166.32" y="1.18" width="0.68" height="30" fill="#fc0069"/><rect x="165.65" y="1.18" width="0.68" height="30" fill="#fc0068"/><rect x="164.97" y="1.18" width="0.68" height="30" fill="#fb0067"/><rect x="164.3" y="1.18" width="0.68" height="30" fill="#fb0066"/><rect x="163.62" y="1.18" width="0.68" height="30" fill="#fb0065"/><rect x="162.95" y="1.18" width="0.68" height="30" fill="#fa0064"/><rect x="162.27" y="1.18" width="0.68" height="30" fill="#fa0063"/><rect x="161.59" y="1.18" width="0.68" height="30" fill="#fa0062"/><rect x="160.92" y="1.18" width="0.68" height="30" fill="#f90061"/><rect x="160.24" y="1.18" width="0.68" height="30" fill="#f90060"/><rect x="159.57" y="1.18" width="0.68" height="30" fill="#f9005f"/><rect x="158.89" y="1.18" width="0.68" height="30" fill="#f8005e"/><rect x="158.22" y="1.18" width="0.68" height="30" fill="#f8005d"/><rect x="157.54" y="1.18" width="0.68" height="30" fill="#f8005c"/><rect x="156.87" y="1.18" width="0.68" height="30" fill="#f7005b"/><rect x="156.19" y="1.18" width="0.68" height="30" fill="#f7005a"/><rect x="155.52" y="1.18" width="0.68" height="30" fill="#f70059"/><rect x="154.84" y="1.18" width="0.68" height="30" fill="#f60058"/><rect x="154.16" y="1.18" width="0.68" height="30" fill="#f60057"/><rect x="153.49" y="1.18" width="0.68" height="30" fill="#f60056"/><rect x="152.81" y="1.18" width="0.68" height="30" fill="#f50055"/><rect x="152.14" y="1.18" width="0.68" height="30" fill="#f50054"/><rect x="151.46" y="1.18" width="0.68" height="30" fill="#f50053"/><rect x="150.79" y="1.18" width="0.68" height="30" fill="#f40052"/><rect x="150.11" y="1.18" width="0.68" height="30" fill="#f40051"/><rect x="149.44" y="1.18" width="0.68" height="30" fill="#f40050"/><rect x="148.76" y="1.18" width="0.68" height="30" fill="#f3004f"/><rect x="148.09" y="1.18" width="0.68" height="30" fill="#f3004e"/><rect x="147.41" y="1.18" width="0.68" height="30" fill="#f3004d"/><rect x="146.73" y="1.18" width="0.68" height="30" fill="#f2004c"/><rect x="146.06" y="1.18" width="0.68" height="30" fill="#f2004b"/><rect x="145.38" y="1.18" width="0.68" height="30" fill="#f2004a"/><rect x="144.71" y="1.18" width="0.68" height="30" fill="#f10049"/><rect x="144.03" y="1.18" width="0.68" height="30" fill="#f10048"/><rect x="143.36" y="1.18" width="0.68" height="30" fill="#f10047"/><rect x="142.68" y="1.18" width="0.68" height="30" fill="#f00046"/><rect x="142.01" y="1.18" width="0.68" height="30" fill="#f00045"/><rect x="141.33" y="1.18" width="0.68" height="30" fill="#f00044"/><rect x="140.66" y="1.18" width="0.68" height="30" fill="#ef0043"/><rect x="139.98" y="1.18" width="0.68" height="30" fill="#ef0042"/><rect x="139.31" y="1.18" width="0.68" height="30" fill="#ef0041"/><rect x="138.63" y="1.18" width="0.68" height="30" fill="#ee0040"/><rect x="137.95" y="1.18" width="0.68" height="30" fill="#ee003f"/><rect x="137.28" y="1.18" width="0.68" height="30" fill="#ee003e"/><rect x="136.6" y="1.18" width="0.68" height="30" fill="#ed003d"/><rect x="135.93" y="1.18" width="0.68" height="30" fill="#ed003c"/><rect x="135.25" y="1.18" width="0.68" height="30" fill="#ed003b"/><rect x="134.58" y="1.18" width="0.68" height="30" fill="#ec003a"/><rect x="133.9" y="1.18" width="0.68" height="30" fill="#ec0038"/><rect x="133.23" y="1.18" width="0.68" height="30" fill="#eb0037"/><rect x="132.55" y="1.18" width="0.68" height="30" fill="#eb0036"/><rect x="131.88" y="1.18" width="0.68" height="30" fill="#eb0035"/><rect x="131.2" y="1.18" width="0.68" height="30" fill="#ea0034"/><rect x="130.52" y="1.18" width="0.68" height="30" fill="#ea0033"/><rect x="129.85" y="1.18" width="0.68" height="30" fill="#ea0032"/><rect x="129.17" y="1.18" width="0.68" height="30" fill="#e90031"/><rect x="128.5" y="1.18" width="0.68" height="30" fill="#e90030"/><rect x="127.82" y="1.18" width="0.68" height="30" fill="#e9002f"/><rect x="127.15" y="1.18" width="0.68" height="30" fill="#e8002e"/><rect x="126.47" y="1.18" width="0.68" height="30" fill="#e8002d"/><rect x="125.8" y="1.18" width="0.68" height="30" fill="#e8002c"/><rect x="125.12" y="1.18" width="0.68" height="30" fill="#e7002b"/><rect x="124.45" y="1.18" width="0.68" height="30" fill="#e7002a"/><rect x="123.77" y="1.18" width="0.68" height="30" fill="#e70029"/><rect x="123.09" y="1.18" width="0.68" height="30" fill="#e60028"/><rect x="122.42" y="1.18" width="0.68" height="30" fill="#e60027"/><rect x="121.74" y="1.18" width="0.68" height="30" fill="#e60026"/><rect x="121.07" y="1.18" width="0.68" height="30" fill="#e50025"/><rect x="120.39" y="1.18" width="0.68" height="30" fill="#e50024"/><rect x="119.72" y="1.18" width="0.68" height="30" fill="#e50023"/><rect x="119.04" y="1.18" width="0.68" height="30" fill="#e40022"/><rect x="118.37" y="1.18" width="0.68" height="30" fill="#e40021"/><rect x="117.69" y="1.18" width="0.68" height="30" fill="#e40020"/><rect x="117.02" y="1.18" width="0.68" height="30" fill="#e3001f"/><rect x="116.34" y="1.18" width="0.68" height="30" fill="#e3001e"/><rect x="115.66" y="1.18" width="0.68" height="30" fill="#e3001d"/><rect x="114.99" y="1.18" width="0.68" height="30" fill="#e2001c"/><rect x="114.31" y="1.18" width="0.68" height="30" fill="#e2001b"/><rect x="113.64" y="1.18" width="0.68" height="30" fill="#e2001a"/><rect x="112.96" y="1.18" width="0.68" height="30" fill="#e10019"/><rect x="112.29" y="1.18" width="0.68" height="30" fill="#e10018"/><rect x="111.61" y="1.18" width="0.68" height="30" fill="#e10017"/><rect x="110.94" y="1.18" width="0.68" height="30" fill="#e00016"/><rect x="110.26" y="1.18" width="0.68" height="30" fill="#e00015"/><rect x="109.59" y="1.18" width="0.68" height="30" fill="#e00014"/><rect x="108.91" y="1.18" width="0.68" height="30" fill="#df0013"/><rect x="108.23" y="1.18" width="0.68" height="30" fill="#df0012"/><rect x="107.56" y="1.18" width="0.68" height="30" fill="#df0011"/><rect x="106.88" y="1.18" width="0.68" height="30" fill="#de0010"/><rect x="106.21" y="1.18" width="0.68" height="30" fill="#de000f"/><rect x="105.53" y="1.18" width="0.68" height="30" fill="#de000e"/><rect x="104.86" y="1.18" width="0.68" height="30" fill="#dd000d"/><rect x="104.18" y="1.18" width="0.68" height="30" fill="#dd000c"/><rect x="103.51" y="1.18" width="0.68" height="30" fill="#dd000b"/><rect x="102.83" y="1.18" width="0.68" height="30" fill="#dc000a"/><rect x="102.16" y="1.18" width="0.68" height="30" fill="#dc0009"/><rect x="101.48" y="1.18" width="0.68" height="30" fill="#dc0008"/><rect x="100.81" y="1.18" width="0.68" height="30" fill="#db0007"/><rect x="100.13" y="1.18" width="0.68" height="30" fill="#db0006"/><rect x="99.45" y="1.18" width="0.68" height="30" fill="#db0005"/><rect x="98.78" y="1.18" width="0.68" height="30" fill="#da0004"/><rect x="98.1" y="1.18" width="0.68" height="30" fill="#da0003"/><rect x="97.43" y="1.18" width="0.68" height="30" fill="#da0002"/><rect x="96.75" y="1.18" width="0.68" height="30" fill="#d90001"/><rect x="96.08" y="1.18" width="0.68" height="30" fill="#d90000"/><path d="M96.08,1.18v0Z" fill="#d90000"/><path d="M96.08,1.18v0Z" fill="#d80000"/><path d="M96.08,1.18v0Z" fill="#d70000"/><path d="M96.08,1.18v0Z" fill="#d60000"/><path d="M96.08,1.18v0Z" fill="#d50000"/><path d="M96.08,1.18v0Z" fill="#d40000"/><path d="M96.08,1.18v0Z" fill="#d30000"/><path d="M96.08,1.18v0Z" fill="#d20000"/><path d="M96.08,1.18v0Z" fill="#d10000"/><path d="M96.08,1.18v0Z" fill="#d00000"/><path d="M96.08,1.18v0Z" fill="#cf0000"/><path d="M96.08,1.18v0Z" fill="#ce0000"/><path d="M96.08,1.18v0Z" fill="#cd0000"/><path d="M96.08,1.18v0Z" fill="#c00"/><path d="M96.08,1.18v0Z" fill="#cb0000"/><path d="M96.08,1.18v0Z" fill="#ca0000"/><path d="M96.08,1.18v0Z" fill="#c90000"/><path d="M96.08,1.18v0Z" fill="#c80000"/><path d="M96.08,1.18v0Z" fill="#c70000"/><path d="M96.08,1.18v0Z" fill="#c60000"/><path d="M96.08,1.18v0Z" fill="#c50000"/><path d="M96.08,1.18v0Z" fill="#c40000"/><path d="M96.08,1.18v0Z" fill="#c30000"/><path d="M96.08,1.18v0Z" fill="#c20000"/><path d="M96.08,1.18v0Z" fill="#c10000"/><path d="M96.08,1.18v0Z" fill="#c00000"/><path d="M96.08,1.18v0Z" fill="#bf0000"/><path d="M96.08,1.18v0Z" fill="#be0000"/><path d="M96.08,1.18v0Z" fill="#bd0000"/><path d="M96.08,1.18v0Z" fill="#bc0000"/><path d="M96.08,1.18v0Z" fill="#b00"/><path d="M96.08,1.18v0Z" fill="#ba0000"/><path d="M96.08,1.18v0Z" fill="#b90000"/><path d="M96.08,1.18v0Z" fill="#b80000"/><path d="M96.08,1.18v0Z" fill="#b70000"/><path d="M96.08,1.18v0Z" fill="#b60000"/><path d="M96.08,1.18v0Z" fill="#b50000"/><path d="M96.08,1.18v0Z" fill="#b40000"/><path d="M96.08,1.18v0Z" fill="#b30000"/><path d="M96.08,1.18v0Z" fill="#b20000"/><path d="M96.08,1.18v0Z" fill="#b10000"/><path d="M96.08,1.18v0Z" fill="#b00000"/><path d="M96.08,1.18v0Z" fill="#af0000"/><path d="M96.08,1.18v0Z" fill="#ae0000"/><path d="M96.08,1.18v0Z" fill="#ad0000"/><path d="M96.08,1.18v0Z" fill="#ac0000"/><path d="M96.08,1.18v0Z" fill="#ab0000"/><path d="M96.08,1.18v0Z" fill="#a00"/><path d="M96.08,1.18v0Z" fill="#a90000"/><path d="M96.08,1.18v0Z" fill="#a80000"/><path d="M96.08,1.18v0Z" fill="#a70000"/><path d="M96.08,1.18v0Z" fill="#a60000"/><path d="M96.08,1.18v0Z" fill="#a50000"/><path d="M96.08,1.18v0Z" fill="#a40000"/><path d="M96.08,1.18v0Z" fill="#a30000"/><path d="M96.08,1.18v0Z" fill="#a20000"/><path d="M96.08,1.18v0Z" fill="#a10000"/><path d="M96.08,1.18v0Z" fill="#a00000"/><path d="M96.08,1.18v0Z" fill="#9f0000"/><path d="M96.08,1.18v0Z" fill="#9e0000"/><path d="M96.08,1.18v0Z" fill="#9d0000"/><path d="M96.08,1.18v0Z" fill="#9c0000"/><path d="M96.08,1.18v0Z" fill="#9b0000"/><path d="M96.08,1.18v0Z" fill="#9a0000"/><path d="M96.08,1.18v0Z" fill="#900"/><path d="M96.08,1.18v0Z" fill="#980000"/><path d="M96.08,1.18v0Z" fill="#970000"/><path d="M96.08,1.18v0Z" fill="#960000"/><path d="M96.08,1.18v0Z" fill="#950000"/><path d="M96.08,1.18v0Z" fill="#940000"/><path d="M96.08,1.18v0Z" fill="#930000"/><path d="M96.08,1.18v0Z" fill="#920000"/><path d="M96.08,1.18v0Z" fill="#910000"/><path d="M96.08,1.18v0Z" fill="#900000"/><path d="M96.08,1.18v0Z" fill="#8f0000"/><path d="M96.08,1.18v0Z" fill="#8e0000"/><path d="M96.08,1.18v0Z" fill="#8d0000"/><path d="M96.08,1.18v0Z" fill="#8c0000"/><path d="M96.08,1.18v0Z" fill="#8b0000"/><path d="M96.08,1.18v0Z" fill="#8a0000"/><path d="M96.08,1.18v0Z" fill="#890000"/><path d="M96.08,1.18v0Z" fill="#800"/><path d="M96.08,1.18v0Z" fill="#870000"/><path d="M96.08,1.18v0Z" fill="#860000"/><path d="M96.08,1.18v0Z" fill="#850000"/><path d="M96.08,1.18v0Z" fill="#840000"/><path d="M96.08,1.18v0Z" fill="#830000"/><path d="M96.08,1.18v0Z" fill="#820000"/><path d="M96.08,1.18v0Z" fill="#810000"/><path d="M96.08,1.18v0Z" fill="maroon"/><path d="M96.08,1.18v0Z" fill="#7f0000"/><path d="M96.08,1.18v0Z" fill="#7e0000"/><path d="M96.08,1.18v0Z" fill="#7d0000"/><path d="M96.08,1.18v0Z" fill="#7c0000"/><path d="M96.08,1.18v0Z" fill="#7b0000"/><path d="M96.08,1.18v0Z" fill="#7a0000"/><path d="M96.08,1.18v0Z" fill="#790000"/><path d="M96.08,1.18v0Z" fill="#780000"/><path d="M96.08,1.18v0Z" fill="#700"/><path d="M96.08,1.18v0Z" fill="#760000"/><path d="M96.08,1.18v0Z" fill="#750000"/><path d="M96.08,1.18v0Z" fill="#740000"/><path d="M96.08,1.18v0Z" fill="#730000"/><path d="M96.08,1.18v0Z" fill="#720000"/><path d="M96.08,1.18v0Z" fill="#710000"/><path d="M96.08,1.18v0Z" fill="#700000"/><path d="M96.08,1.18v0Z" fill="#6f0000"/><path d="M96.08,1.18v0Z" fill="#6e0000"/><path d="M96.08,1.18v0Z" fill="#6d0000"/><path d="M96.08,1.18v0Z" fill="#6b0000"/><path d="M96.08,1.18v0Z" fill="#6a0000"/><path d="M96.08,1.18v0Z" fill="#690000"/><path d="M96.08,1.18v0Z" fill="#680000"/><path d="M96.08,1.18v0Z" fill="#670000"/><path d="M96.08,1.18v0Z" fill="#600"/><path d="M96.08,1.18v0Z" fill="#650000"/><path d="M96.08,1.18v0Z" fill="#640000"/><path d="M96.08,1.18v0Z" fill="#630000"/><path d="M96.08,1.18v0Z" fill="#620000"/><path d="M96.08,1.18v0Z" fill="#610000"/><path d="M96.08,1.18v0Z" fill="#600000"/><path d="M96.08,1.18v0Z" fill="#5f0000"/><path d="M96.08,1.18v0Z" fill="#5e0000"/><path d="M96.08,1.18v0Z" fill="#5d0000"/><path d="M96.08,1.18v0Z" fill="#5c0000"/><path d="M96.08,1.18v0Z" fill="#5b0000"/><path d="M96.08,1.18v0Z" fill="#5a0000"/><path d="M96.08,1.18v0Z" fill="#590000"/><path d="M96.08,1.18v0Z" fill="#580000"/><path d="M96.08,1.18v0Z" fill="#570000"/><path d="M96.08,1.18v0Z" fill="#560000"/><path d="M96.08,1.18v0Z" fill="#500"/><path d="M96.08,1.18v0Z" fill="#540000"/><path d="M96.08,1.18v0Z" fill="#530000"/><path d="M96.08,1.18v0Z" fill="#520000"/><path d="M96.08,1.18v0Z" fill="#510000"/><path d="M96.08,1.18v0Z" fill="#500000"/><path d="M96.08,1.18v0Z" fill="#4f0000"/><path d="M96.08,1.18v0Z" fill="#4e0000"/><path d="M96.08,1.18v0Z" fill="#4d0000"/><path d="M96.08,1.18v0Z" fill="#4c0000"/><path d="M96.08,1.18v0Z" fill="#4b0000"/><path d="M96.08,1.18v0Z" fill="#4a0000"/><path d="M96.08,1.18v0Z" fill="#490000"/><path d="M96.08,1.18v0Z" fill="#480000"/><path d="M96.08,1.18v0Z" fill="#470000"/><path d="M96.08,1.18v0Z" fill="#460000"/><path d="M96.08,1.18v0Z" fill="#450000"/><path d="M96.08,1.18v0Z" fill="#400"/><path d="M96.08,1.18v0Z" fill="#430000"/><path d="M96.08,1.18v0Z" fill="#420000"/><path d="M96.08,1.18v0Z" fill="#410000"/><path d="M96.08,1.18v0Z" fill="#400000"/><path d="M96.08,1.18v0Z" fill="#3f0000"/><path d="M96.08,1.18v0Z" fill="#3e0000"/><path d="M96.08,1.18v0Z" fill="#3d0000"/><path d="M96.08,1.18v0Z" fill="#3c0000"/><path d="M96.08,1.18v0Z" fill="#3b0000"/><path d="M96.08,1.18v0Z" fill="#3a0000"/><path d="M96.08,1.18v0Z" fill="#390000"/><path d="M96.08,1.18v0Z" fill="#380000"/><path d="M96.08,1.18v0Z" fill="#370000"/><path d="M96.08,1.18v0Z" fill="#360000"/><path d="M96.08,1.18v0Z" fill="#350000"/><path d="M96.08,1.18v0Z" fill="#340000"/><path d="M96.08,1.18v0Z" fill="#300"/><path d="M96.08,1.18v0Z" fill="#320000"/><path d="M96.08,1.18v0Z" fill="#310000"/><path d="M96.08,1.18v0Z" fill="#300000"/><path d="M96.08,1.18v0Z" fill="#2f0000"/><path d="M96.08,1.18v0Z" fill="#2e0000"/><path d="M96.08,1.18v0Z" fill="#2d0000"/><path d="M96.08,1.18v0Z" fill="#2c0000"/><path d="M96.08,1.18v0Z" fill="#2b0000"/><path d="M96.08,1.18v0Z" fill="#2a0000"/><path d="M96.08,1.18v0Z" fill="#290000"/><path d="M96.08,1.18v0Z" fill="#280000"/><path d="M96.08,1.18v0Z" fill="#270000"/><path d="M96.08,1.18v0Z" fill="#260000"/><path d="M96.08,1.18v0Z" fill="#250000"/><path d="M96.08,1.18v0Z" fill="#240000"/><path d="M96.08,1.18v0Z" fill="#230000"/><path d="M96.08,1.18v0Z" fill="#200"/><path d="M96.08,1.18v0Z" fill="#210000"/><path d="M96.08,1.18v0Z" fill="#200000"/><path d="M96.08,1.18v0Z" fill="#1f0000"/><path d="M96.08,1.18v0Z" fill="#1e0000"/><path d="M96.08,1.18v0Z" fill="#1d0000"/><path d="M96.08,1.18v0Z" fill="#1c0000"/><path d="M96.08,1.18v0Z" fill="#1b0000"/><path d="M96.08,1.18v0Z" fill="#1a0000"/><path d="M96.08,1.18v0Z" fill="#190000"/><path d="M96.08,1.18v0Z" fill="#180000"/><path d="M96.08,1.18v0Z" fill="#170000"/><path d="M96.08,1.18v0Z" fill="#160000"/><path d="M96.08,1.18v0Z" fill="#150000"/><path d="M96.08,1.18v0Z" fill="#140000"/><path d="M96.08,1.18v0Z" fill="#130000"/><path d="M96.08,1.18v0Z" fill="#120000"/><path d="M96.08,1.18v0Z" fill="#100"/><path d="M96.08,1.18v0Z" fill="#100000"/><path d="M96.08,1.18v0Z" fill="#0f0000"/><path d="M96.08,1.18v0Z" fill="#0e0000"/><path d="M96.08,1.18v0Z" fill="#0d0000"/><path d="M96.08,1.18v0Z" fill="#0c0000"/><path d="M96.08,1.18v0Z" fill="#0b0000"/><path d="M96.08,1.18v0Z" fill="#0a0000"/><path d="M96.08,1.18v0Z" fill="#090000"/><path d="M96.08,1.18v0Z" fill="#080000"/><path d="M96.08,1.18v0Z" fill="#070000"/><path d="M96.08,1.18v0Z" fill="#060000"/><path d="M96.08,1.18v0Z" fill="#050000"/><path d="M96.08,1.18v0Z" fill="#040000"/><path d="M96.08,1.18v0Z" fill="#030000"/><path d="M96.08,1.18v0Z" fill="#020000"/><path d="M96.08,1.18v0Z" fill="#010000"/><path d="M96.08,1.18v0Z"/><path d="M96.08,1.18v0Z"/></g><g style="isolation:isolate"><path d="M112.35,24.12c1.42,0,2.87-.13,4.39-.23v2.61a30.82,30.82,0,0,1-7.1.69C105.16,27.12,102,25.47,102,17c0-7.36.4-12.41,7.62-12.44a68.66,68.66,0,0,1,7.13.5V8c-3.86-.3-5.64-.26-6.14-.26-3.83,0-4.19,2.57-4.19,9.44C106.41,23.46,108.49,24.32,112.35,24.12Z" fill="#fff"/><path d="M119.74,26.89v-22h4.46V23.49h8.38v3.4Z" fill="#fff"/><path d="M146.18,15.87V4.81h4.55V15.87c0,9.24-1,11.35-8.19,11.35s-8.12-2.38-8.12-11.35V4.81H139V15.87c0,6.67.16,8.15,3.53,8.15S146.18,22.8,146.18,15.87Z" fill="#fff"/><path d="M154.36,26.89v-22h5.94c4.09,0,7.76.5,7.76,5.64v1.42a4.66,4.66,0,0,1-1.91,3.86A5.61,5.61,0,0,1,168.06,20v1.32c0,4.46-2.41,5.61-7.76,5.61ZM158.78,8v6.14h2.77c1.22,0,2.08-.5,2.08-2.28V10.75c0-2.61-1.19-2.77-3.2-2.77Zm0,15.81h1.65c2.15,0,3.2-.66,3.2-2.71V19.93c0-1.85-.86-2.28-2.08-2.28h-2.77Z" fill="#fff"/></g><g style="isolation:isolate"><path d="M11.92,15.84c0,3.23-2.28,4.69-5.25,4.69a48.8,48.8,0,0,1-5.84-.4V17a45.88,45.88,0,0,0,5.12.36c1,0,1.58-.23,1.58-1.16C7.53,13.83,0,13.73,0,8.35,0,5.08,2.21,3.63,5.21,3.63a48.88,48.88,0,0,1,5.88.4v3.2s-3.27-.36-5.74-.36c-.69,0-1,.36-1,1.12C4.32,9.83,11.92,10.46,11.92,15.84Z"/><path d="M31.39,20.43V8.51c0-.76-.23-1.25-.73-1.25a15.53,15.53,0,0,0-3.1.53l0,12.64H23.27V8.35c0-.69-.26-1.09-.76-1.09A11.85,11.85,0,0,0,19.24,8V20.43H14.92V4h3.63l.33,1.39a7.28,7.28,0,0,1,4.39-1.72A4.38,4.38,0,0,1,26.5,5.21a8.84,8.84,0,0,1,4.88-1.58c2.9,0,4.39,1.49,4.39,4.29V20.43Z"/><path d="M51.18,20.43H47.52c-.07-.33-.17-1-.26-1.35a7.78,7.78,0,0,1-3.93,1.65c-3.56,0-4.75-2.44-4.75-5.54,0-3.89,2.57-4.72,6-4.49l2.34.17V8.28c0-1.39-.56-1.45-1.49-1.45a34.78,34.78,0,0,0-5.35.43c0-.13-.59-2.9-.59-3.07a31.07,31.07,0,0,1,6.37-.59c3.63,0,5.35.79,5.35,4.75Zm-4.29-6.87c-3,0-4.06.13-4.06,1.78,0,1.19.33,1.82,1,1.82a12.42,12.42,0,0,0,3.1-1Z"/><path d="M63.59,3.56V6.9a16,16,0,0,0-4.52,1.62V20.43H54.75V3.93h3.93l.13,1.45A11,11,0,0,1,63.59,3.56Z"/><path d="M67.91,14.49V7H64.68v-3h3.23V0h4.22V3.93h3.3V7h-3.3V15c0,2.08.1,2.74,2.21,2.61.1,0,.23,0,.36,0,.3,0,.63,0,1.06-.1,0,.73,0,2.15,0,2.87a10.94,10.94,0,0,1-2.44.33C68.47,20.73,67.91,18.42,67.91,14.49Z"/><path d="M89.07,15.84c0,3.23-2.28,4.69-5.25,4.69a48.8,48.8,0,0,1-5.84-.4V17a45.88,45.88,0,0,0,5.12.36c1,0,1.58-.23,1.58-1.16,0-2.34-7.53-2.44-7.53-7.82,0-3.27,2.21-4.72,5.21-4.72a48.88,48.88,0,0,1,5.88.4v3.2S85,6.86,82.5,6.86c-.69,0-1,.36-1,1.12C81.48,9.83,89.07,10.46,89.07,15.84Z"/></g><g style="isolation:isolate"><path d="M5.64,24.09v4.59h-1V24.94H3v3.74h-1V24.09Z"/><path d="M6.53,24.15a8.45,8.45,0,0,1,1.4-.1,2.16,2.16,0,0,1,1.4.38,1.3,1.3,0,0,1,.49,1.05,1.42,1.42,0,0,1-.42,1.09,2.16,2.16,0,0,1-1.49.48,1.86,1.86,0,0,1-.35,0v1.65h-1Zm1,2.08a1.54,1.54,0,0,0,.35,0c.55,0,.89-.28.89-.74s-.29-.67-.82-.67a1.92,1.92,0,0,0-.42,0Z"/><path d="M12.43,28.75a2.14,2.14,0,0,1-2.16-2.33A2.22,2.22,0,0,1,12.5,24a2.14,2.14,0,0,1,2.18,2.32,2.18,2.18,0,0,1-2.25,2.42Zm.05-.82c.7,0,1.1-.66,1.1-1.56s-.39-1.53-1.1-1.53-1.12.69-1.12,1.55.42,1.54,1.11,1.54Z"/><path d="M18.72,28.55a3.05,3.05,0,0,1-1.17.2,2.19,2.19,0,0,1-2.4-2.3A2.33,2.33,0,0,1,17.65,24a2.86,2.86,0,0,1,1.13.2l-.22.82a2.18,2.18,0,0,0-.87-.17,1.38,1.38,0,0,0-1.46,1.52,1.37,1.37,0,0,0,1.46,1.49,2.46,2.46,0,0,0,.87-.15Z"/><path d="M20.42,25H19.18v-.87h3.53V25H21.46v3.72h-1Z"/><path d="M25,28.75a2.14,2.14,0,0,1-2.16-2.33A2.22,2.22,0,0,1,25.05,24a2.14,2.14,0,0,1,2.18,2.32A2.18,2.18,0,0,1,25,28.75Zm.05-.82c.7,0,1.1-.66,1.1-1.56s-.39-1.53-1.1-1.53-1.12.69-1.12,1.55.42,1.54,1.11,1.54Z"/><path d="M33,24.09v4.59H32V24.94H30.32v3.74h-1V24.09Z"/><path d="M35.83,28.75a2.14,2.14,0,0,1-2.16-2.33A2.22,2.22,0,0,1,35.91,24a2.14,2.14,0,0,1,2.18,2.32,2.18,2.18,0,0,1-2.25,2.42Zm.05-.82c.7,0,1.1-.66,1.1-1.56s-.39-1.53-1.1-1.53-1.12.69-1.12,1.55.42,1.54,1.11,1.54Z"/><path d="M42.15,24.09v4.59h-1V24.94h-1V26c0,1.18-.15,2.09-.84,2.5a1.88,1.88,0,0,1-.91.22l-.13-.84a.86.86,0,0,0,.52-.25,2.41,2.41,0,0,0,.35-1.57v-2Z"/><path d="M43.79,24.09l.67,1.65c.13.32.22.6.33.88h0c.06-.2.14-.5.25-.9l.5-1.63h1.09l-.86,2.27a7.59,7.59,0,0,1-.91,1.82,1.47,1.47,0,0,1-1.22.61,1.37,1.37,0,0,1-.5-.08l.07-.83a1.48,1.48,0,0,0,.35,0,.68.68,0,0,0,.62-.42.25.25,0,0,0,0-.22l-1.54-3.18Z"/><path d="M48.07,24.09v1.35a.69.69,0,0,0,.77.78,1.5,1.5,0,0,0,.67-.18v-2h1v4.65h-1V26.82h0a2.3,2.3,0,0,1-1,.23A1.3,1.3,0,0,1,47,25.63V24.09Z"/><path d="M52.5,27.5l-.32,1.18H51.11l1.4-4.59h1.35l1.43,4.59H54.18l-.35-1.18Zm1.16-.78-.29-1c-.07-.27-.16-.62-.22-.88h0c-.06.27-.14.62-.2.88l-.28,1Z"/><path d="M56.86,24.09v1.36c0,.73,0,1.46-.05,2.08h0c.25-.54.55-1.14.82-1.63l1-1.8h1.06v4.59h-1V27.33a19.1,19.1,0,0,1,.07-1.93h0A13.34,13.34,0,0,1,58,27l-.93,1.65H55.9V24.09Zm.64-1c0,.27.09.42.31.42s.29-.15.31-.42h.7c0,.58-.43.84-1,.84a.86.86,0,0,1-1-.84Z"/><path d="M65,24.09v.84H63v.79a4.81,4.81,0,0,1,.56,0,2.25,2.25,0,0,1,1.29.37,1.3,1.3,0,0,1,.53,1.1,1.36,1.36,0,0,1-.44,1,2.9,2.9,0,0,1-1.86.52A7.76,7.76,0,0,1,62,28.66V24.09Zm-2,3.83a2.34,2.34,0,0,0,.4,0,1,1,0,0,0,.67-.23.73.73,0,0,0,.22-.54.63.63,0,0,0-.24-.52,1.14,1.14,0,0,0-.69-.2l-.36,0Z"/><path d="M68,28.75a2.14,2.14,0,0,1-2.16-2.33A2.22,2.22,0,0,1,68.05,24a2.14,2.14,0,0,1,2.18,2.32A2.18,2.18,0,0,1,68,28.75Zm.05-.82c.7,0,1.1-.66,1.1-1.56s-.39-1.53-1.1-1.53-1.12.69-1.12,1.55.42,1.54,1.11,1.54Z"/><path d="M74.29,24.09v4.59h-1V24.94h-1V26c0,1.18-.15,2.09-.84,2.5a1.88,1.88,0,0,1-.91.22l-.13-.84a.86.86,0,0,0,.52-.25,2.41,2.41,0,0,0,.35-1.57v-2Z"/><path d="M76.23,24.09v1.6a4.35,4.35,0,0,1,.56,0c1,0,1.82.47,1.82,1.49a1.38,1.38,0,0,1-.37,1,2.74,2.74,0,0,1-1.92.59,7.91,7.91,0,0,1-1.12-.07V24.09Zm0,3.83a2.12,2.12,0,0,0,.38,0c.5,0,.91-.25.91-.76s-.4-.74-.9-.74a3.36,3.36,0,0,0-.4,0Z"/><path d="M80.32,24.09v3.74h1.13V24.09h1v3.74H83.6V24.09h1v4.59H79.3V24.09Z"/><path d="M88.23,26.74H86.55v1.09h1.88v.85H85.51V24.09h2.82v.85H86.55v1h1.69Z"/></g></svg>